<svg aria-hidden="true" style="position:absolute;width:0;height:0;overflow:hidden" xmlns="http://www.w3.org/2000/svg"><defs><symbol id="icon-logo" viewBox="0 0 32 32"><path fill="#fbfbfb" style="fill:var(--color1, #fbfbfb)" d="M29.082.314h-4.009c-1.237 0-2.24.983-2.24 2.195v3.929c0 1.212 1.003 2.195 2.24 2.195h4.009c1.237 0 2.24-.983 2.24-2.195V2.509c0-1.212-1.003-2.195-2.24-2.195zM6.73 23.04H2.412C1.08 23.04 0 24.023 0 25.235v3.929c0 1.213 1.08 2.195 2.412 2.195H6.73c1.332 0 2.412-.983 2.412-2.195v-3.929c0-1.212-1.08-2.195-2.412-2.195zM6.25 11.582H2.241c-1.237 0-2.24.983-2.24 2.195v3.929c0 1.212 1.003 2.195 2.24 2.195H6.25c1.237 0 2.24-.983 2.24-2.195v-3.929c0-1.212-1.003-2.195-2.24-2.195zM17.766 22.978h-4.009c-1.237 0-2.24.983-2.24 2.195v3.929c0 1.212 1.003 2.195 2.241 2.195h4.009c1.237 0 2.24-.983 2.24-2.195v-3.929c0-1.213-1.003-2.195-2.24-2.195zM6.25.086H2.241c-1.237 0-2.24.983-2.24 2.195V6.21c0 1.212 1.003 2.195 2.24 2.195H6.25c1.237 0 2.24-.983 2.24-2.195V2.281C8.49 1.069 7.487.086 6.25.086zM18.076 11.697h-4.009c-1.237 0-2.24.983-2.24 2.195v3.929c0 1.212 1.003 2.195 2.24 2.195h4.009c1.237 0 2.24-.983 2.24-2.195v-3.929c0-1.212-1.003-2.195-2.24-2.195zM29.333 22.978h-4.01c-1.237 0-2.24.983-2.24 2.195v3.929c0 1.212 1.003 2.195 2.24 2.195h4.009c1.237 0 2.24-.983 2.24-2.195v-3.929c0-1.213-1.003-2.195-2.24-2.195zM17.591.224h-4.009c-1.237 0-2.24.983-2.24 2.195v3.929c0 1.212 1.003 2.195 2.24 2.195h4.009c1.237 0 2.24-.984 2.24-2.196V2.418c0-1.212-1.003-2.195-2.24-2.195zM29.044 11.926h-4.01c-1.237 0-2.24.983-2.24 2.195v3.929c0 1.212 1.003 2.195 2.24 2.195h4.009c1.237 0 2.24-.983 2.24-2.195v-3.929c0-1.212-1.003-2.195-2.24-2.195z"/></symbol><symbol id="icon-menu" viewBox="0 0 32 32"><path fill="none" stroke="#fbfbfb" style="stroke:var(--color1, #fbfbfb)" stroke-linejoin="round" stroke-linecap="round" stroke-width="3.2" d="M5.333 8h21.333M5.333 16H16M5.333 24h21.333"/></symbol><symbol id="icon-person" viewBox="0 0 32 32"><path d="M16 16c2.947 0 5.333-2.387 5.333-5.333S18.946 5.334 16 5.334c-2.947 0-5.333 2.387-5.333 5.333S13.054 16 16 16zm0 2.667c-3.56 0-10.667 1.787-10.667 5.333v1.333c0 .733.6 1.333 1.333 1.333h18.667c.733 0 1.333-.6 1.333-1.333V24c0-3.547-7.107-5.333-10.667-5.333z"/></symbol><symbol id="icon-phone" viewBox="0 0 24 32"><path d="m19.635 18.487-2.451-.28a1.92 1.92 0 0 0-1.582.55l-1.775 1.775a14.514 14.514 0 0 1-6.359-6.359l1.785-1.785c.415-.415.618-.994.55-1.582l-.28-2.432a1.931 1.931 0 0 0-1.92-1.708H5.934c-1.09 0-1.997.907-1.93 1.997.511 8.24 7.102 14.821 15.332 15.332 1.09.068 1.997-.839 1.997-1.93v-1.669a1.913 1.913 0 0 0-1.698-1.911z"/></symbol><symbol id="icon-send" viewBox="0 0 32 32"><path fill="#fff" style="fill:var(--color3, #fff)" d="m32 2.667-32 15 10.227 3.156L26 8.5 14.002 21.988l.01.003-.012-.003v7.345l5.735-5.576L27 25.999l5-23.333z"/></symbol><symbol id="icon-check" viewBox="0 0 32 32"><path d="M27.026 4.016a2.936 2.936 0 0 1 4.092.031 2.967 2.967 0 0 1 .108 4.112L15.563 27.853a2.923 2.923 0 0 1-2.103.945 2.926 2.926 0 0 1-2.136-.866L.937 17.489a2.966 2.966 0 0 1-.722-3.274 2.947 2.947 0 0 1 2.782-1.851 2.926 2.926 0 0 1 2.102.942l8.22 8.26L26.952 4.102c.025-.03.051-.059.078-.087h-.004z"/></symbol><symbol id="icon-email" viewBox="0 0 24 32"><path d="M20 8H4c-1.1 0-1.99.9-1.99 2L2 22c0 1.1.9 2 2 2h16c1.1 0 2-.9 2-2V10c0-1.1-.9-2-2-2zm-.4 4.25-7.07 4.42c-.32.2-.74.2-1.06 0L4.4 12.25a.85.85 0 1 1 .9-1.44L12 15l6.7-4.19a.85.85 0 1 1 .9 1.44z"/></symbol><symbol id="icon-cross" viewBox="0 0 32 32"><path fill="none" stroke="#fbfbfb" style="stroke:var(--color1, #fbfbfb)" stroke-linejoin="round" stroke-linecap="round" stroke-width="3.2" d="M24 8 8 24M8 8l16 16"/></symbol><symbol id="icon-logo-text" viewBox="0 0 168 15"><path d="M7.25042 15C2.89191 15 0 12.06 0 7.48C0 3 2.85059 0 7.14714 0C10.762 0 13.3028 2.06 13.6746 5.16H10.6794C10.3902 3.38 9.00622 2.38 7.14714 2.38C4.54442 2.38 2.99519 4.42 2.99519 7.48C2.99519 10.84 4.73033 12.62 7.25042 12.62C9.44001 12.62 10.8446 11.42 10.9892 9.62V9.42H6.96123V7.18H13.7779V9.02C13.6539 12.6 11.0512 15 7.25042 15Z" fill="#FBFBFB"/><path d="M15.5837 14.8V0.2H22.8341C26.5316 0.2 27.9982 1.94 27.9982 4.46C27.9982 6.72 26.3457 7.8 24.4247 8.06V8.12C25.664 8.42 26.2218 9.08 26.7382 10.38C27.3992 12.02 27.5025 13.98 28.3494 14.68V14.8H25.0444C24.342 14.12 24.1768 11.98 23.805 10.68C23.4331 9.34 22.6275 9.18 21.1196 9.18H18.4756V14.8H15.5837ZM18.4756 6.86H22.5243C24.2181 6.86 25.003 5.9 25.003 4.66C25.003 3.3 24.0322 2.52 22.5243 2.52H18.4756V6.86Z" fill="#FBFBFB"/><path d="M29.919 14.8V0.2H40.2265V2.52H32.8109V6H39.5036V8.32H32.8109V12.42H40.3298V14.8H29.919Z" fill="#FBFBFB"/><path d="M42.3378 14.8V0.2H52.6454V2.52H45.2298V6H51.9224V8.32H45.2298V12.42H52.7487V14.8H42.3378Z" fill="#FBFBFB"/><path d="M54.7567 14.8V0.2H58.2683L63.2672 8.26C64.7958 10.7 64.9817 11.5 64.9817 11.5H65.0437L65.0023 0.2H67.8943V14.8H64.362L59.1772 6.5C57.9998 4.62 57.69 3.48 57.69 3.48H57.6486V14.8H54.7567Z" fill="#FBFBFB"/><path d="M70.0698 14.8V11.84H73.0856V14.8H70.0698Z" fill="#FBFBFB"/><path d="M75.2575 14.8V0.2H78.1494V6.04H85.0693V0.2H87.9612V14.8H85.0693V8.36H78.1494V14.8H75.2575Z" fill="#FBFBFB"/><path d="M89.1972 14.8L94.981 0.2H98.1208L103.987 14.8H100.889L99.67 11.44H93.4111L92.1924 14.8H89.1972ZM94.2374 9.12H98.8438L97.5011 5.52C96.5716 2.86 96.5509 2.38 96.5509 2.38H96.5096C96.5096 2.38 96.5096 2.86 95.5801 5.52L94.2374 9.12Z" fill="#FBFBFB"/><path d="M105.219 14.8V0.2H112.469C116.167 0.2 117.634 1.94 117.634 4.46C117.634 6.72 115.981 7.8 114.06 8.06V8.12C115.299 8.42 115.857 9.08 116.374 10.38C117.035 12.02 117.138 13.98 117.985 14.68V14.8H114.68C113.977 14.12 113.812 11.98 113.44 10.68C113.068 9.34 112.263 9.18 110.755 9.18H108.111V14.8H105.219ZM108.111 6.86H112.16C113.853 6.86 114.638 5.9 114.638 4.66C114.638 3.3 113.668 2.52 112.16 2.52H108.111V6.86Z" fill="#FBFBFB"/><path d="M122.62 14.8L117.084 0.2H120.183C120.183 0.2 123.178 8.38 123.488 9.38C123.984 10.98 124.211 11.8 124.211 11.8H124.252C124.232 11.8 124.459 10.98 124.975 9.38C125.306 8.38 128.177 0.2 128.177 0.2H131.172L125.843 14.8H122.62Z" fill="#FBFBFB"/><path d="M132.356 14.8V0.2H142.664V2.52H135.248V6H141.941V8.32H135.248V12.42H142.767V14.8H132.356Z" fill="#FBFBFB"/><path d="M149.947 15C146.105 15 143.791 12.98 143.791 9.98H147.096C147.055 11.68 148.212 12.62 149.947 12.62C151.785 12.62 152.653 11.92 152.653 10.88C152.653 9.84 151.909 9.4 149.265 8.7C146.848 8.06 144.204 7.3 144.204 4.3C144.204 1.92 146.353 0 149.74 0C153.231 0 155.462 1.9 155.462 4.58H152.26C152.24 3.16 151.248 2.38 149.74 2.38C148.274 2.38 147.303 3.1 147.303 4.06C147.303 5.2 148.108 5.56 150.215 6.14C153.334 6.98 155.854 7.32 155.854 10.58C155.854 13.2 153.396 15 149.947 15Z" fill="#FBFBFB"/><path d="M160.564 14.8V2.58H155.999V0.2H168V2.58H163.456V14.8H160.564Z" fill="#FBFBFB"/></symbol></defs>
<symbol id="icon-logo-2" viewBox="0 0 389 32">
<path fill="#fbfbfb" style="fill: var(--color1, #fbfbfb)" d="M16.803 32c-10.101 0-16.803-6.272-16.803-16.043 0-9.557 6.606-15.957 16.563-15.957 8.377 0 14.265 4.395 15.127 11.008h-6.941c-0.67-3.797-3.878-5.931-8.186-5.931-6.032 0-9.622 4.352-9.622 10.88 0 7.168 4.021 10.965 9.861 10.965 5.074 0 8.329-2.56 8.665-6.4v-0.427h-9.335v-4.779h15.797v3.925c-0.287 7.637-6.319 12.757-15.127 12.757z"></path>
<path fill="#fbfbfb" style="fill: var(--color1, #fbfbfb)" d="M36.115 31.573v-31.147h16.802c8.569 0 11.968 3.712 11.968 9.088 0 4.821-3.83 7.125-8.282 7.68v0.128c2.872 0.64 4.165 2.048 5.362 4.821 1.532 3.499 1.771 7.68 3.734 9.173v0.256h-7.659c-1.627-1.451-2.010-6.016-2.872-8.789-0.862-2.859-2.729-3.2-6.223-3.2h-6.127v11.989h-6.702zM42.817 14.635h9.383c3.925 0 5.744-2.048 5.744-4.693 0-2.901-2.25-4.565-5.744-4.565h-9.383v9.259z"></path>
<path fill="#fbfbfb" style="fill: var(--color1, #fbfbfb)" d="M69.336 31.573v-31.147h23.887v4.949h-17.186v7.424h15.51v4.949h-15.51v8.747h17.425v5.077h-24.127z"></path>
<path fill="#fbfbfb" style="fill: var(--color1, #fbfbfb)" d="M98.116 31.573v-31.147h23.887v4.949h-17.186v7.424h15.51v4.949h-15.51v8.747h17.425v5.077h-24.127z"></path>
<path fill="#fbfbfb" style="fill: var(--color1, #fbfbfb)" d="M126.897 31.573v-31.147h8.138l11.585 17.195c3.542 5.205 3.973 6.912 3.973 6.912h0.143l-0.096-24.107h6.702v31.147h-8.186l-12.015-17.707c-2.729-4.011-3.447-6.443-3.447-6.443h-0.096v24.149h-6.702z"></path>
<path fill="#fbfbfb" style="fill: var(--color1, #fbfbfb)" d="M162.384 31.573v-6.315h6.989v6.315h-6.989z"></path>
<path fill="#fbfbfb" style="fill: var(--color1, #fbfbfb)" d="M174.406 31.573v-31.147h6.702v12.459h16.037v-12.459h6.702v31.147h-6.702v-13.739h-16.037v13.739h-6.702z"></path>
<path fill="#fbfbfb" style="fill: var(--color1, #fbfbfb)" d="M206.711 31.573l13.404-31.147h7.276l13.595 31.147h-7.181l-2.824-7.168h-14.505l-2.824 7.168h-6.941zM218.391 19.456h10.675l-3.111-7.68c-2.154-5.675-2.202-6.699-2.202-6.699h-0.096c0 0 0 1.024-2.154 6.699l-3.111 7.68z"></path>
<path fill="#fbfbfb" style="fill: var(--color1, #fbfbfb)" d="M243.841 31.573v-31.147h16.803c8.57 0 11.967 3.712 11.967 9.088 0 4.821-3.829 7.125-8.281 7.68v0.128c2.873 0.64 4.164 2.048 5.361 4.821 1.533 3.499 1.771 7.68 3.733 9.173v0.256h-7.658c-1.627-1.451-2.011-6.016-2.872-8.789-0.862-2.859-2.729-3.2-6.223-3.2h-6.127v11.989h-6.702zM250.543 14.635h9.382c3.926 0 5.745-2.048 5.745-4.693 0-2.901-2.25-4.565-5.745-4.565h-9.382v9.259z"></path>
<path fill="#fbfbfb" style="fill: var(--color1, #fbfbfb)" d="M284.168 31.573l-12.829-31.147h7.181c0 0 6.941 17.451 7.659 19.584 1.149 3.413 1.675 5.163 1.675 5.163h0.096c-0.048 0 0.48-1.749 1.675-5.163 0.768-2.133 7.421-19.584 7.421-19.584h6.941l-12.352 31.147h-7.467z"></path>
<path fill="#fbfbfb" style="fill: var(--color1, #fbfbfb)" d="M306.731 31.573v-31.147h23.888v4.949h-17.187v7.424h15.512v4.949h-15.512v8.747h17.427v5.077h-24.128z"></path>
<path fill="#fbfbfb" style="fill: var(--color1, #fbfbfb)" d="M347.496 32c-8.904 0-14.267-4.309-14.267-10.709h7.661c-0.096 3.627 2.584 5.632 6.605 5.632 4.261 0 6.269-1.493 6.269-3.712s-1.723-3.157-7.851-4.651c-5.6-1.365-11.728-2.987-11.728-9.387 0-5.077 4.979-9.173 12.829-9.173 8.091 0 13.261 4.053 13.261 9.771h-7.421c-0.048-3.029-2.344-4.693-5.84-4.693-3.397 0-5.648 1.536-5.648 3.584 0 2.432 1.867 3.2 6.749 4.437 7.229 1.792 13.069 2.517 13.069 9.472 0 5.589-5.696 9.429-13.691 9.429z"></path>
<path fill="#fbfbfb" style="fill: var(--color1, #fbfbfb)" d="M372.099 31.573v-26.069h-10.579v-5.077h27.813v5.077h-10.531v26.069h-6.704z"></path>
</symbol>
<symbol id="icon-logo-1" viewBox="0 0 32 32">
<path fill="#fbfbfb" style="fill: var(--color1, #fbfbfb)" d="M29.082 0.314h-4.009c-1.237 0-2.24 0.983-2.24 2.195v3.929c0 1.212 1.003 2.195 2.24 2.195h4.009c1.237 0 2.24-0.983 2.24-2.195v-3.929c0-1.212-1.003-2.195-2.24-2.195z"></path>
<path fill="#fbfbfb" style="fill: var(--color1, #fbfbfb)" d="M6.73 23.040h-4.318c-1.332 0-2.412 0.983-2.412 2.195v3.929c0 1.213 1.080 2.195 2.412 2.195h4.318c1.332 0 2.412-0.983 2.412-2.195v-3.929c0-1.212-1.080-2.195-2.412-2.195z"></path>
<path fill="#fbfbfb" style="fill: var(--color1, #fbfbfb)" d="M6.25 11.582h-4.009c-1.237 0-2.24 0.983-2.24 2.195v3.929c0 1.212 1.003 2.195 2.24 2.195h4.009c1.237 0 2.24-0.983 2.24-2.195v-3.929c0-1.212-1.003-2.195-2.24-2.195z"></path>
<path fill="#fbfbfb" style="fill: var(--color1, #fbfbfb)" d="M17.766 22.978h-4.009c-1.237 0-2.24 0.983-2.24 2.195l-0 3.929c0 1.212 1.003 2.195 2.241 2.195h4.009c1.237 0 2.24-0.983 2.24-2.195v-3.929c0-1.213-1.003-2.195-2.24-2.195z"></path>
<path fill="#fbfbfb" style="fill: var(--color1, #fbfbfb)" d="M6.25 0.086h-4.009c-1.237 0-2.24 0.983-2.24 2.195v3.929c0 1.212 1.003 2.195 2.24 2.195h4.009c1.237 0 2.24-0.983 2.24-2.195v-3.929c0-1.212-1.003-2.195-2.24-2.195z"></path>
<path fill="#fbfbfb" style="fill: var(--color1, #fbfbfb)" d="M18.076 11.697h-4.009c-1.237 0-2.24 0.983-2.24 2.195v3.929c0 1.212 1.003 2.195 2.24 2.195h4.009c1.237 0 2.24-0.983 2.24-2.195v-3.929c0-1.212-1.003-2.195-2.24-2.195z"></path>
<path fill="#fbfbfb" style="fill: var(--color1, #fbfbfb)" d="M29.333 22.978h-4.010c-1.237 0-2.24 0.983-2.24 2.195v3.929c0 1.212 1.003 2.195 2.24 2.195h4.009c1.237 0 2.24-0.983 2.24-2.195v-3.929c0-1.213-1.003-2.195-2.24-2.195z"></path>
<path fill="#fbfbfb" style="fill: var(--color1, #fbfbfb)" d="M17.591 0.224h-4.009c-1.237 0-2.24 0.983-2.24 2.195v3.929c0 1.212 1.003 2.195 2.24 2.195h4.009c1.237 0 2.24-0.984 2.24-2.196v-3.929c0-1.212-1.003-2.195-2.24-2.195z"></path>
<path fill="#fbfbfb" style="fill: var(--color1, #fbfbfb)" d="M29.044 11.926h-4.010c-1.237 0-2.24 0.983-2.24 2.195v3.929c0 1.212 1.003 2.195 2.24 2.195h4.009c1.237 0 2.24-0.983 2.24-2.195v-3.929c0-1.212-1.003-2.195-2.24-2.195z"></path>
</symbol>
</svg>