<svg aria-hidden="true" style="position:absolute;width:0;height:0;overflow:hidden" xmlns="http://www.w3.org/2000/svg">
<defs>
<symbol id="icon-logo" viewBox="0 0 32 32"><path fill="#fbfbfb" style="fill:var(--color1, #fbfbfb)" d="M29.082.314h-4.009c-1.237 0-2.24.983-2.24 2.195v3.929c0 1.212 1.003 2.195 2.24 2.195h4.009c1.237 0 2.24-.983 2.24-2.195V2.509c0-1.212-1.003-2.195-2.24-2.195zM6.73 23.04H2.412C1.08 23.04 0 24.023 0 25.235v3.929c0 1.213 1.08 2.195 2.412 2.195H6.73c1.332 0 2.412-.983 2.412-2.195v-3.929c0-1.212-1.08-2.195-2.412-2.195zM6.25 11.582H2.241c-1.237 0-2.24.983-2.24 2.195v3.929c0 1.212 1.003 2.195 2.24 2.195H6.25c1.237 0 2.24-.983 2.24-2.195v-3.929c0-1.212-1.003-2.195-2.24-2.195zM17.766 22.978h-4.009c-1.237 0-2.24.983-2.24 2.195v3.929c0 1.212 1.003 2.195 2.241 2.195h4.009c1.237 0 2.24-.983 2.24-2.195v-3.929c0-1.213-1.003-2.195-2.24-2.195zM6.25.086H2.241c-1.237 0-2.24.983-2.24 2.195V6.21c0 1.212 1.003 2.195 2.24 2.195H6.25c1.237 0 2.24-.983 2.24-2.195V2.281C8.49 1.069 7.487.086 6.25.086zM18.076 11.697h-4.009c-1.237 0-2.24.983-2.24 2.195v3.929c0 1.212 1.003 2.195 2.24 2.195h4.009c1.237 0 2.24-.983 2.24-2.195v-3.929c0-1.212-1.003-2.195-2.24-2.195zM29.333 22.978h-4.01c-1.237 0-2.24.983-2.24 2.195v3.929c0 1.212 1.003 2.195 2.24 2.195h4.009c1.237 0 2.24-.983 2.24-2.195v-3.929c0-1.213-1.003-2.195-2.24-2.195zM17.591.224h-4.009c-1.237 0-2.24.983-2.24 2.195v3.929c0 1.212 1.003 2.195 2.24 2.195h4.009c1.237 0 2.24-.984 2.24-2.196V2.418c0-1.212-1.003-2.195-2.24-2.195zM29.044 11.926h-4.01c-1.237 0-2.24.983-2.24 2.195v3.929c0 1.212 1.003 2.195 2.24 2.195h4.009c1.237 0 2.24-.983 2.24-2.195v-3.929c0-1.212-1.003-2.195-2.24-2.195z"/></symbol>
<symbol id="icon-menu" viewBox="0 0 32 32"><path fill="none" stroke="#fbfbfb" style="stroke:var(--color1, #fbfbfb)" stroke-linejoin="round" stroke-linecap="round" stroke-width="3.2" d="M5.333 8h21.333M5.333 16H16M5.333 24h21.333"/></symbol>
<symbol id="icon-cross" viewBox="0 0 32 32"><path fill="none" stroke="#fbfbfb" style="stroke:var(--color1, #fbfbfb)" stroke-linejoin="round" stroke-linecap="round" stroke-width="3.2" d="M24 8 8 24M8 8l16 16"/></symbol>
<symbol id="icon-logo-text" viewBox="0 0 358 32">
<path fill="#fbfbfb" style="fill: var(--color1, #fbfbfb)" d="M15.467 32c-9.297 0-15.467-6.272-15.467-16.043 0-9.557 6.080-15.957 15.247-15.957 7.712 0 13.133 4.395 13.926 11.008h-6.391c-0.617-3.797-3.569-5.931-7.535-5.931-5.553 0-8.858 4.352-8.858 10.88 0 7.168 3.701 10.965 9.077 10.965 4.672 0 7.669-2.56 7.979-6.4v-0.427h-8.597v-4.779h14.543v3.925c-0.262 7.637-5.818 12.757-13.924 12.757zM33.246 31.573v-31.147h15.467c7.889 0 11.017 3.712 11.017 9.088 0 4.821-3.524 7.125-7.622 7.68v0.128c2.643 0.64 3.834 2.048 4.934 4.821 1.41 3.499 1.632 7.68 3.437 9.173v0.256h-7.051c-1.498-1.451-1.85-6.016-2.643-8.789-0.794-2.859-2.511-3.2-5.728-3.2h-5.641v11.989h-6.17zM39.415 14.635h8.636c3.614 0 5.289-2.048 5.289-4.693 0-2.901-2.069-4.565-5.289-4.565h-8.636v9.259zM63.827 31.573v-31.147h21.99v4.949h-15.823v7.424h14.278v4.949h-14.278v8.747h16.041v5.077h-22.208zM90.321 31.573v-31.147h21.988v4.949h-15.819v7.424h14.276v4.949h-14.276v8.747h16.041v5.077h-22.21zM116.815 31.573v-31.147h7.49l10.667 17.195c3.26 5.205 3.657 6.912 3.657 6.912h0.132l-0.090-24.107h6.17v31.147h-7.535l-11.061-17.707c-2.511-4.011-3.172-6.443-3.172-6.443h-0.087v24.149h-6.17zM149.483 31.573v-6.315h6.434v6.315h-6.434zM160.548 31.573v-31.147h6.17v12.459h14.763v-12.459h6.17v31.147h-6.167v-13.739h-14.763v13.739h-6.17zM190.287 31.573l12.339-31.147h6.699l12.514 31.147h-6.609l-2.601-7.168h-13.353l-2.601 7.168h-6.389zM201.039 19.456h9.828l-2.867-7.68c-1.984-5.675-2.027-6.699-2.027-6.699h-0.087s0 1.024-1.984 6.699l-2.865 7.68zM224.467 31.573v-31.147h15.467c7.889 0 11.019 3.712 11.019 9.088 0 4.821-3.526 7.125-7.625 7.68v0.128c2.643 0.64 3.834 2.048 4.937 4.821 1.41 3.499 1.63 7.68 3.437 9.173v0.256h-7.051c-1.5-1.451-1.852-6.016-2.645-8.789-0.794-2.859-2.511-3.2-5.728-3.2h-5.641v11.989h-6.17zM230.637 14.635h8.638c3.612 0 5.286-2.048 5.286-4.693 0-2.901-2.069-4.565-5.286-4.565h-8.638v9.259zM261.589 31.573l-11.81-31.147h6.611s6.389 17.451 7.051 19.584c1.058 3.413 1.542 5.163 1.542 5.163h0.087c-0.043 0 0.442-1.749 1.542-5.163 0.706-2.133 6.831-19.584 6.831-19.584h6.389l-11.369 31.147h-6.876zM282.359 31.573v-31.147h21.99v4.949h-15.821v7.424h14.278v4.949h-14.278v8.747h16.041v5.077h-22.21zM319.887 32c-8.196 0-13.133-4.309-13.133-10.709h7.051c-0.087 3.627 2.381 5.632 6.082 5.632 3.921 0 5.773-1.493 5.773-3.712s-1.587-3.157-7.228-4.651c-5.156-1.365-10.797-2.987-10.797-9.387 0-5.077 4.585-9.173 11.81-9.173 7.447 0 12.207 4.053 12.207 9.771h-6.831c-0.043-3.029-2.159-4.693-5.376-4.693-3.127 0-5.199 1.536-5.199 3.584 0 2.432 1.717 3.2 6.212 4.437 6.654 1.792 12.030 2.517 12.030 9.472 0 5.589-5.244 9.429-12.602 9.429zM342.537 31.573v-26.069h-9.739v-5.077h25.602v5.077h-9.694v26.069h-6.17z"></path></symbol>
</defs></svg>